<svg xml:space="preserve" width="298.033" height="92.975" viewBox="-49.221 -39.85 354.554 185.183" xmlns="http://www.w3.org/2000/svg"><defs><clipPath clipPathUnits="userSpaceOnUse" id="a"><path d="M0 145.333h305.333V0H0Z"/></clipPath></defs><g clip-path="url(#a)" transform="matrix(1.33333 0 0 -1.33333 -50.233 147.265)"><path d="M0 0c-4.588 0-8.083 4.659-8.083 10.38 0 5.734 3.495 10.378 8.083 10.378 4.596 0 8.083-4.644 8.083-10.378C8.083 4.659 4.596 0 0 0m0 23.607c-9.578 0-15.312-5.917-15.312-13.227C-15.312 3.074-9.578-2.833 0-2.833S15.328 3.074 15.328 10.38c0 7.31-5.75 13.227-15.328 13.227" style="fill:#e60013;fill-opacity:1;fill-rule:nonzero;stroke:none" transform="translate(162.493 64.866)"/><path d="M0 0h10.089v-21.451h7.602V0h8.506v2.924H0Z" style="fill:#e60013;fill-opacity:1;fill-rule:nonzero;stroke:none" transform="translate(179.119 84.574)"/><path d="M0 0h8.501v-21.451h7.595V0H26.19v2.924H0Z" style="fill:#e60013;fill-opacity:1;fill-rule:nonzero;stroke:none" transform="translate(208.093 84.574)"/><path d="M0 0v20.008h-7.289v-21.47a2.902 2.902 0 0 1 2.903-2.905h18.643v2.919H1.46C.658-1.448 0-.803 0 0" style="fill:#e60013;fill-opacity:1;fill-rule:nonzero;stroke:none" transform="translate(132.053 67.49)"/><path d="M0 0h14.029v2.884H-5.853A2.9 2.9 0 0 1-8.759-.014v-18.572a2.904 2.904 0 0 1 2.906-2.903h19.882v2.882H0c-.813 0-1.449.656-1.449 1.447v7.183h15.25v2.862h-15.25v5.672C-1.449-.647-.813 0 0 0" style="fill:#e60013;fill-opacity:1;fill-rule:nonzero;stroke:none" transform="translate(247.17 84.614)"/><path d="M0 0c-7.896-7.896-20.816-7.896-28.712 0l-14.587 14.587c-7.896 7.896-7.896 20.817 0 28.713l14.587 14.587c7.896 7.896 20.816 7.896 28.712 0L14.587 43.3c7.896-7.896 7.896-20.817 0-28.713z" style="fill:#e60013;fill-opacity:1;fill-rule:nonzero;stroke:none" transform="translate(86.896 46.64)"/><path d="M0 0a2.15 2.15 0 0 0-2.153 2.066 2.149 2.149 0 0 0 .568 1.551c.39.424.922.671 1.498.694a2.154 2.154 0 0 0 2.245-2.066A2.159 2.159 0 0 0 .092.002L0 0" style="fill:#fff;fill-opacity:1;fill-rule:nonzero;stroke:none" transform="translate(63.888 54.156)"/><path d="M0 0c-1.184 0-2.132-.37-2.898-1.132-1.654-1.644-2.522-5.038-2.445-9.555.093-5.569 1.42-16.495 5.8-22.121.71-.91 1.473-1.638 2.269-2.163.771-.511 1.637-1.008 2.988-1.008.366 0 .76.037 1.17.111 2.512.602 5.658 3.398 7.998 7.119.357.567.97.905 1.64.905a1.92 1.92 0 0 0 1.027-.297c.438-.275.742-.704.857-1.208a1.914 1.914 0 0 0-.249-1.459c-2.959-4.706-6.865-8.011-10.45-8.84a.707.707 0 0 0-.089-.02 10.75 10.75 0 0 0-1.919-.182c-2.312 0-3.943.881-5.105 1.648-1.149.76-2.222 1.775-3.19 3.016-6.166 7.919-6.588 22.766-6.616 24.433-.067 3.951.502 9.304 3.588 12.367 1.506 1.494 3.393 2.252 5.608 2.252l.36-.001c2.221 0 4.11-.757 5.615-2.251 3.086-3.063 3.655-8.416 3.589-12.367-.07-4.117-.825-12.09-5.093-19.239a1.936 1.936 0 0 0-2.653-.669 1.941 1.941 0 0 0-.67 2.654c2.988 5.002 4.432 10.506 4.546 17.32.077 4.519-.792 7.912-2.446 9.555C2.466-.37 1.52 0 .34 0Z" style="fill:#fff;fill-opacity:1;fill-rule:nonzero;stroke:none" transform="translate(71.737 93.974)"/></g></svg>
